<svg width="99" height="33" viewBox="0 0 99 33" fill="none" xmlns="http://www.w3.org/2000/svg">
<path d="M13.168 32.3081C9.56004 32.3081 6.59737 31.4574 4.28004 29.7561C1.96271 28.0254 0.716039 25.5614 0.540039 22.3641H9.73604C9.82404 23.4494 10.1467 24.2414 10.704 24.7401C11.2614 25.2388 11.98 25.4881 12.86 25.4881C13.652 25.4881 14.2974 25.2974 14.796 24.9161C15.324 24.5054 15.588 23.9481 15.588 23.2441C15.588 22.3348 15.1627 21.6308 14.312 21.1321C13.4614 20.6334 12.0827 20.0761 10.176 19.4601C8.15204 18.7854 6.50937 18.1401 5.24804 17.5241C4.01604 16.8788 2.93071 15.9548 1.99204 14.7521C1.08271 13.5201 0.628039 11.9214 0.628039 9.95609C0.628039 7.96143 1.12671 6.26009 2.12404 4.85209C3.12137 3.41476 4.50004 2.32943 6.26004 1.59609C8.02004 0.86276 10.0147 0.496094 12.244 0.496094C15.852 0.496094 18.7267 1.34676 20.868 3.04809C23.0387 4.72009 24.1974 7.08143 24.344 10.1321H14.972C14.9427 9.19343 14.6494 8.48943 14.092 8.02009C13.564 7.55076 12.8747 7.31609 12.024 7.31609C11.3787 7.31609 10.8507 7.50676 10.44 7.88809C10.0294 8.26943 9.82404 8.81209 9.82404 9.51609C9.82404 10.1028 10.044 10.6161 10.484 11.0561C10.9534 11.4668 11.5254 11.8334 12.2 12.1561C12.8747 12.4494 13.872 12.8308 15.192 13.3001C17.1574 13.9748 18.7707 14.6494 20.032 15.3241C21.3227 15.9694 22.4227 16.8934 23.332 18.0961C24.2707 19.2694 24.74 20.7654 24.74 22.5841C24.74 24.4321 24.2707 26.0894 23.332 27.5561C22.4227 29.0228 21.088 30.1814 19.328 31.0321C17.5974 31.8828 15.544 32.3081 13.168 32.3081Z" fill="#DB1D1D"/>
<path d="M35.3572 15.3681C36.1492 14.2161 37.1092 13.3041 38.2372 12.6321C39.3652 11.9601 40.5772 11.6241 41.8732 11.6241V19.1481H39.8932C38.3572 19.1481 37.2172 19.4481 36.4732 20.0481C35.7292 20.6481 35.3572 21.6921 35.3572 23.1801V32.0001H28.3012V11.8041H35.3572V15.3681Z" fill="white"/>
<path d="M47.9668 9.93209C46.7188 9.93209 45.7108 9.59609 44.9428 8.92409C44.1988 8.22809 43.8268 7.36409 43.8268 6.33209C43.8268 5.27609 44.1988 4.40009 44.9428 3.70409C45.7108 3.00809 46.7188 2.66009 47.9668 2.66009C49.1908 2.66009 50.1748 3.00809 50.9188 3.70409C51.6868 4.40009 52.0708 5.27609 52.0708 6.33209C52.0708 7.36409 51.6868 8.22809 50.9188 8.92409C50.1748 9.59609 49.1908 9.93209 47.9668 9.93209ZM51.4588 11.8041V32.0001H44.4028V11.8041H51.4588Z" fill="white"/>
<path d="M68.689 11.6241C71.017 11.6241 72.865 12.4041 74.233 13.9641C75.601 15.5001 76.285 17.5881 76.285 20.2281V32.0001H69.229V21.1641C69.229 20.0121 68.929 19.1121 68.329 18.4641C67.729 17.7921 66.925 17.4561 65.917 17.4561C64.861 17.4561 64.033 17.7921 63.433 18.4641C62.833 19.1121 62.533 20.0121 62.533 21.1641V32.0001H55.477V11.8041H62.533V14.6841C63.157 13.7721 63.997 13.0401 65.053 12.4881C66.109 11.9121 67.321 11.6241 68.689 11.6241Z" fill="white"/>
<path d="M83.7207 9.93209C82.4727 9.93209 81.4647 9.59609 80.6967 8.92409C79.9527 8.22809 79.5807 7.36409 79.5807 6.33209C79.5807 5.27609 79.9527 4.40009 80.6967 3.70409C81.4647 3.00809 82.4727 2.66009 83.7207 2.66009C84.9447 2.66009 85.9287 3.00809 86.6727 3.70409C87.4407 4.40009 87.8247 5.27609 87.8247 6.33209C87.8247 7.36409 87.4407 8.22809 86.6727 8.92409C85.9287 9.59609 84.9447 9.93209 83.7207 9.93209ZM87.2127 11.8041V32.0001H80.1567V11.8041H87.2127Z" fill="white"/>
<path d="M94.6509 32.2881C93.4029 32.2881 92.3949 31.9521 91.6269 31.2801C90.8829 30.5841 90.5109 29.7081 90.5109 28.6521C90.5109 27.5961 90.8829 26.7201 91.6269 26.0241C92.3949 25.3281 93.4029 24.9801 94.6509 24.9801C95.8749 24.9801 96.8589 25.3281 97.6029 26.0241C98.3709 26.7201 98.7549 27.5961 98.7549 28.6521C98.7549 29.6841 98.3709 30.5481 97.6029 31.2441C96.8589 31.9401 95.8749 32.2881 94.6509 32.2881Z" fill="white"/>
</svg>
